Coordinates
version=1
nRows=19
nColumns=36
inDegrees=yes

Units are S.I. units (second, meters, Newtons, ...)
If the header above contains a line with 'inDegrees', this indicates whether rotational values are in degrees (yes) or radians (no).

endheader
time	pelvis_tilt	pelvis_list	pelvis_rotation	pelvis_tx	pelvis_ty	pelvis_tz	hip_flexion_r	hip_adduction_r	hip_rotation_r	knee_angle_r	knee_angle_r_beta	ankle_angle_r	subtalar_angle_r	mtp_angle_r	hip_flexion_l	hip_adduction_l	hip_rotation_l	knee_angle_l	knee_angle_l_beta	ankle_angle_l	subtalar_angle_l	mtp_angle_l	lumbar_extension	lumbar_bending	lumbar_rotation	arm_flex_r	arm_add_r	arm_rot_r	elbow_flex_r	pro_sup_r	arm_flex_l	arm_add_l	arm_rot_l	elbow_flex_l	pro_sup_l
      1.20000000	    -23.42171343	     -3.88536779	      7.97725000	      0.15479111	      1.16250399	      0.10066239	     40.85208052	      0.59690347	     -0.74211432	     50.43658002	      0.88028438	     33.37633614	    -16.57843484	     -7.49991189	     39.27180287	     -1.59391428	     -2.13588744	     49.91180638	      0.87112536	     33.26870711	     -6.00941721	     -7.49991189	    -11.62601059	     -0.51706462	      1.03755209	     64.40091853	    -20.28646126	     12.11289554	     97.22170794	     92.42796319	     57.01756495	    -36.26118552	     17.19599846	    105.28464068	     94.30162055
      1.21666670	    -24.11279343	     -4.03207188	      7.44822574	      0.17052218	      1.18475710	      0.10046207	     38.26337765	      0.76334045	     -0.98422976	     46.50646512	      0.81169094	     32.49011707	    -14.94134067	     -7.49991574	     37.24443886	     -1.92860327	     -2.91451442	     46.75460510	      0.81602180	     31.67125138	     -5.96542780	     -7.49991574	     -8.54357609	     -0.21051717	      1.26609961	     67.15597225	    -23.14866492	     15.84467666	    100.76406122	     91.98509017	     60.05767399	    -39.52655132	     18.39817466	    109.57516422	     93.60392009
      1.23333330	    -23.91870531	     -4.24191858	      7.30410549	      0.18647019	      1.19576554	      0.10651145	     34.53638542	      0.99880419	     -1.40287984	     41.80202424	      0.72958296	     30.79000480	    -13.47915850	     -7.49991889	     34.38644253	     -2.39010130	     -3.30329044	     43.28154167	      0.75540541	     29.65896883	     -5.89424540	     -7.49991889	     -5.73323495	     -0.28628820	      0.12672882	     72.31525618	    -25.08944780	     22.01189866	    101.01128797	     92.32987549	     67.55668093	    -44.50341400	     23.44180686	    111.11312289	     93.82186168
      1.25000000	    -23.37934202	     -4.45479052	      7.63306077	      0.23961102	      1.20827423	      0.10124687	     28.89477827	      1.12253666	     -2.01335756	     35.66455819	      0.62246397	     28.71291985	    -10.28477066	     -7.49992297	     29.41816964	     -2.85374567	     -3.84509619	     37.98812212	      0.66301781	     28.27944156	     -3.27598889	     -7.49992297	     -1.92636804	     -0.33813719	     -1.73104121	     73.35361240	    -27.21388577	     24.85873415	    106.99274421	     92.57929510	     71.52198269	    -51.89072840	     27.96404902	    116.07908215	     93.50769994
      1.26666670	    -23.07604020	     -4.50212287	      7.32635004	      0.26094900	      1.23830215	      0.09652233	     23.93672030	      0.92941949	     -2.83098031	     29.27140176	      0.51088234	     24.95557358	     -6.74590070	     -7.49993093	     23.73053802	     -3.19502590	     -5.17780462	     32.14330277	      0.56100647	     24.77742955	     -0.68628368	     -7.49993093	      0.83198457	     -0.04962167	     -2.88266084	     74.98722287	    -29.29099557	     26.43246257	    111.99851110	     90.00691725	     73.84336372	    -58.22132232	     31.38744468	    120.09058098	     90.72684785
      1.28333330	    -22.93473762	     -4.68046087	      6.27056331	      0.27408573	      1.24778024	      0.09730369	     20.41256150	      1.17721425	     -2.54039860	     24.04256576	      0.41962193	     20.67310341	     -4.13923701	     -7.49993758	     20.07260628	     -3.85982830	     -6.49777203	     27.78986012	      0.48502456	     20.95133880	      1.09706808	     -7.49993758	      2.21984908	      0.89413702	     -6.54448705	     83.81260253	    -25.34360061	     32.22075876	    107.35082350	     89.53275488	     85.49929332	    -68.94713496	     41.00022777	    123.17239611	     89.28135010
      1.30000000	    -22.60450862	     -4.46293076	      5.50245764	      0.30851810	      1.27292488	      0.10079522	     16.85921329	      0.96365770	     -3.03124257	     19.50878921	      0.34049260	     14.88357454	     -1.97991989	     -7.49995342	     17.01307429	     -4.16569917	     -7.20235304	     24.83046759	      0.43337341	     15.38006366	      2.40944650	     -7.49995342	      2.62755235	      1.37863559	    -11.54610464	     88.83320314	    -20.60939407	     35.59143782	    106.48913352	     89.59006205	     91.37433898	    -85.30240874	     44.56594546	    130.48320760	     80.74258204
      1.31666670	    -21.66682265	     -4.07852616	      4.81391373	      0.35143912	      1.30352998	      0.09166209	     12.95335099	      0.24119689	     -4.66327955	     16.26367178	      0.28385462	      8.44613631	      0.76813047	     -7.49996955	     13.15061238	     -4.10228043	     -7.40523997	     21.91864374	      0.38255250	      9.04117749	      3.10836135	     -7.49996955	      3.15431874	      1.69019979	    -17.54984212	     88.16676302	    -16.22782668	     37.47361612	    105.60258892	     90.57463538	    103.57195380	   -103.76278356	     56.88496978	    140.13938375	     72.39418351
      1.33333330	    -20.50696885	     -3.90020083	      4.60220979	      0.36912406	      1.32393171	      0.09358109	     10.52256710	     -0.03571364	     -5.51336076	     15.35515862	      0.26799808	      0.98696993	      1.26100370	     -7.49996928	     11.08250045	     -4.51886629	     -7.16463120	     21.08670474	      0.36803243	      2.01489580	      2.67034547	     -7.49996928	      3.39516029	      1.32871493	    -18.45744683	     85.74056754	    -16.66661687	     37.04707055	    107.43864714	     91.01597140	    102.22806058	   -110.97829710	     56.91875996	    143.93899893	     73.11545916
      1.35000000	    -19.24617344	     -3.67142528	      4.64151500	      0.37565849	      1.34539202	      0.08974177	      9.76590291	     -0.42798321	     -5.57359989	     16.59473665	      0.28963279	     -6.77706637	     -0.95863989	     -7.49997097	     10.96823039	     -4.91291752	     -5.88725665	     22.35795915	      0.39022000	     -4.19884416	      1.59079275	     -7.49997097	      2.36554608	      0.80597623	    -18.87209798	     84.57425592	    -18.45634395	     37.69147331	    108.85023795	     90.39645963	    103.32825245	   -115.35622699	     59.89554312	    146.07146907	     73.16190079
      1.36666670	    -17.74262588	     -4.17197032	      5.35983246	      0.38985568	      1.36192358	      0.08819022	     10.44544818	     -0.42511320	     -5.97921098	     20.42052017	      0.35640531	    -13.81985784	     -4.15642391	     -7.49997507	     11.32065435	     -5.74633536	     -4.06043705	     25.06542346	      0.43747417	     -7.76989392	      0.36590567	     -7.49997507	      0.38556447	      1.22333945	    -19.03741712	     83.69316638	    -20.65061123	     37.75593205	    108.27645267	     88.96031066	    104.07793741	   -116.73465091	     62.11151362	    145.91524120	     73.16870035
      1.38333330	    -15.64026307	     -4.16766229	      5.89645825	      0.41041660	      1.37749341	      0.07892955	     11.40144050	     -1.07431314	     -5.85883227	     25.68873895	      0.44835308	    -18.58923874	     -7.94937140	     -7.49997720	     12.75074338	     -5.66362310	     -2.68580763	     30.41058717	      0.53076487	    -11.41591760	     -3.03218523	     -7.49997720	     -2.48659619	      1.44922339	    -19.30383511	     82.63674097	    -23.39277128	     37.53229854	    108.85182397	     88.21262771	    105.19508347	   -118.83553256	     64.70373671	    146.62875277	     73.27842987
      1.40000000	    -13.72779770	     -4.23421827	      6.22795391	      0.43018338	      1.38544447	      0.07550267	     12.32114134	     -1.63315531	     -6.12781744	     29.71999706	      0.51871180	    -20.28024916	    -10.95544136	     -7.49998121	     14.01046500	     -5.52305188	     -1.36144970	     33.89574376	      0.59159233	    -13.78889811	     -4.05264538	     -7.49998121	     -4.22170232	      2.15272572	    -18.95456432	     81.50891386	    -25.80978250	     37.91656592	    109.21533729	     88.88013161	    110.42571940	   -120.54417964	     72.44005888	    147.21551279	     75.81273506
      1.41666670	    -12.41523013	     -3.90927651	      6.50674301	      0.44873475	      1.39064762	      0.07943014	     13.56579435	     -2.32866835	     -5.99769117	     31.01984367	      0.54139841	    -18.74284353	    -10.54404598	     -7.49998306	     15.77408189	     -5.36200931	     -1.07468848	     36.67330905	      0.64006999	    -11.11494170	     -3.37225722	     -7.49998306	     -5.76226947	      1.50944925	    -20.27517028	     79.51146905	    -26.87907537	     38.42773435	    106.83819313	     88.34882221	    109.67888105	   -125.27565424	     74.57281093	    147.33323699	     76.21023741
      1.43333330	    -11.33570454	     -3.63034320	      7.17464473	      0.46216990	      1.39397776	      0.08486648	     15.17491067	     -2.72598732	     -6.40342808	     31.40632653	      0.54814380	    -16.69996549	    -10.94053668	     -7.49998379	     17.06747154	     -5.79343529	     -0.41481464	     36.94252273	      0.64476866	    -12.98531744	     -0.68884932	     -7.49998379	     -7.57424497	      0.54557377	    -20.86523659	     77.23422125	    -29.15339613	     38.85458369	    105.06124932	     87.78617313	    108.67627985	   -127.10820522	     75.75764979	    146.05134163	     76.03539521
      1.45000000	    -11.18790771	     -3.23849221	      7.58553663	      0.47504476	      1.38955974	      0.08507991	     17.36287167	     -3.34433445	     -6.40285445	     30.20647781	      0.52720249	    -13.71558286	     -8.68992044	     -7.49998551	     18.62379517	     -6.33557700	     -0.96996195	     35.94601196	      0.62737626	    -10.66871583	      0.57426308	     -7.49998551	     -8.63705104	     -0.93768002	    -21.49905344	     74.09423948	    -31.58922438	     37.61057617	    104.23310426	     87.30232690	    105.19783444	   -129.08550678	     74.00773565	    145.64803795	     76.28287845
      1.46666670	    -10.36356833	     -2.72108060	      7.60911603	      0.50459184	      1.38542836	      0.07567787	     16.85803457	     -4.25318649	     -6.46411649	     27.01689858	      0.47153383	    -10.35158525	     -6.12195843	     -7.49998694	     18.93205528	     -6.10395402	     -1.68624803	     34.38698736	      0.60016615	     -9.63502708	      3.98781184	     -7.49998694	     -8.86006613	     -2.06182769	    -21.62070873	     72.15547897	    -34.68534888	     39.32481437	     99.99890383	     86.66409403	    104.20965691	   -130.88371603	     77.13520849	    143.39826602	     76.31679669
      1.48333330	    -10.23362018	     -2.62464854	      7.43375777	      0.51166930	      1.38422469	      0.07317454	     18.46244775	     -4.98032971	     -6.86217796	     24.82648503	      0.43330391	    -12.11521289	     -4.83668628	     -7.49998687	     19.32076035	     -5.87991549	     -2.84743379	     30.77179444	      0.53706913	    -10.87370062	      5.23341843	     -7.49998687	     -9.76571784	     -2.64187124	    -21.65001582	     70.46438170	    -38.31539468	     40.10079759	     98.55344676	     86.83987491	    103.17474495	   -133.65304913	     78.61868304	    142.84151268	     76.52380975
      1.50000000	     -9.87742147	     -2.50200044	      6.82984260	      0.52493811	      1.36651568	      0.07509313	     20.50247292	     -5.40176142	     -6.44073453	     24.33608043	      0.42474473	    -10.97157762	     -3.53227051	     -7.49998769	     20.93912938	     -6.02683822	     -2.94411577	     29.22582266	      0.51008683	    -12.51092431	      4.91463294	     -7.49998769	    -10.12040786	     -3.22970146	    -21.38887542	     69.94256858	    -42.90090124	     43.89114250	     97.10364282	     85.95679474	     99.82757983	   -136.83053142	     79.23709689	    141.57086418	     76.70760541
